<?xml version="1.0" encoding="UTF-8" standalone="no"?>
<!-- Created with Inkscape (http://www.inkscape.org/) -->

<svg
   width="200"
   height="200"
   viewBox="0 0 52.916665 52.916668"
   version="1.1"
   id="svg5"
   inkscape:version="1.1 (c68e22c387, 2021-05-23)"
   sodipodi:docname="logo.svg"
   xmlns:inkscape="http://www.inkscape.org/namespaces/inkscape"
   xmlns:sodipodi="http://sodipodi.sourceforge.net/DTD/sodipodi-0.dtd"
   xmlns="http://www.w3.org/2000/svg"
   xmlns:svg="http://www.w3.org/2000/svg">
  <sodipodi:namedview
     id="namedview7"
     pagecolor="#ffffff"
     bordercolor="#666666"
     borderopacity="1.0"
     inkscape:pageshadow="2"
     inkscape:pageopacity="0.0"
     inkscape:pagecheckerboard="0"
     inkscape:document-units="mm"
     showgrid="true"
     units="px"
     inkscape:zoom="2.4153942"
     inkscape:cx="199.76036"
     inkscape:cy="87.149337"
     inkscape:window-width="1920"
     inkscape:window-height="1009"
     inkscape:window-x="1912"
     inkscape:window-y="-8"
     inkscape:window-maximized="1"
     inkscape:current-layer="text3484">
    <inkscape:grid
       type="xygrid"
       id="grid824"
       spacingx="5.2916666"
       spacingy="5.2916666" />
  </sodipodi:namedview>
  <defs
     id="defs2" />
  <g
     inkscape:label="Layer 1"
     inkscape:groupmode="layer"
     id="layer1">
    <rect
       style="fill:#497462;stroke:#000000;stroke-width:0;stroke-linecap:square;paint-order:stroke markers fill;stroke-miterlimit:4;stroke-dasharray:none;fill-opacity:1"
       id="rect950"
       width="52.916664"
       height="52.916664"
       x="0"
       y="0" />
    <rect
       style="fill:#d8d7c4;stroke:#000000;stroke-width:0;stroke-linecap:square;stroke-miterlimit:4;stroke-dasharray:none;paint-order:stroke markers fill;fill-opacity:1"
       id="rect1054"
       width="37.041664"
       height="37.041664"
       x="15.875"
       y="15.875" />
    <g
       aria-label="Q"
       id="text3484"
       style="font-weight:300;font-size:22.5778px;line-height:1.25;font-family:Calibri;-inkscape-font-specification:'Calibri, Light';stroke-width:0.264583;fill:#4e5471;fill-opacity:1">
      <g
         aria-label="Q"
         transform="rotate(45)"
         id="text8137"
         style="font-size:35.2778px;stroke-width:0.0700042">
        <path
           d="m 36.837552,0.63067181 q 0,-2.99723511 1.274686,-6.01169571 1.274686,-3.031686 3.272843,-5.3226761 2.015382,-2.29099 4.650882,-3.737931 2.652725,-1.446941 5.30545,-1.446941 3.600128,0 5.839441,2.583823 2.239314,2.566598 2.239314,6.6318135 0,2.9283331 -1.171334,5.9083427 -1.154107,2.9800096 -3.513999,5.5810584 -2.342667,2.5838234 -5.443255,3.9963135 0.03445,0.844049 0.120579,1.3435879 0.08613,0.516765 0.275607,1.136883 0.206706,0.620117 0.637344,0.91295 0.447862,0.310059 1.119656,0.310059 1.085206,0 2.153186,-0.8785 1.085206,-0.861274 1.584745,-2.1531858 0.241157,-0.7062451 0.465089,-0.775147 0.137804,-0.068902 0.275607,0.034451 0.137804,0.103353 0.137804,0.2411569 0,0.3961862 -0.344509,1.41249 -0.327285,1.016304 -0.947402,2.29099 -0.602892,1.274686 -1.739775,2.204863 -1.119656,0.930176 -2.463245,0.930176 -2.756078,0 -2.756078,-3.238392 0,-0.8785 0.310059,-3.3589702 -1.722549,0.5339902 -3.16949,0.5339902 -3.634578,0 -5.873892,-2.5493724 -2.239313,-2.5665978 -2.239313,-6.58013679 z m 3.031686,1.22300969 q 0,5.0815193 3.255617,6.5629114 -0.137804,-0.4306373 -0.155029,-0.9474019 0,-1.3435882 0.999078,-2.5149214 1.016304,-1.1885588 2.428794,-1.1885588 2.583823,0 2.82498,3.7379311 2.29099,-1.446941 3.996314,-4.3408232 1.722549,-2.89388216 2.446019,-5.7877643 0.723471,-2.8938822 0.723471,-5.3226761 0,-3.2039413 -1.446941,-5.1331953 -1.446941,-1.929255 -3.824059,-1.929255 -2.997235,0 -5.942794,2.962784 -2.945558,2.962784 -4.42695,8.3026856 -0.8785,3.41064683 -0.8785,5.5982839 z M 43.744973,7.43474 q 0,1.4469411 1.446941,1.4469411 1.343588,0 3.083362,-0.809598 0.0689,-0.7062451 0.0689,-1.0335294 0,-2.4632449 -1.912029,-2.4632449 -1.136882,0 -1.912029,0.9474019 -0.775147,0.9301764 -0.775147,1.9120293 z"
           style="font-style:italic;font-weight:bold;font-family:'CMU Classical Serif';-inkscape-font-specification:'CMU Classical Serif Bold Italic'"
           id="path2560" />
      </g>
      <path
         style="fill:none;stroke:#000000;stroke-width:1.05833;stroke-linecap:butt;stroke-linejoin:miter;stroke-miterlimit:4;stroke-dasharray:none;stroke-opacity:1"
         d="M 0,0.52916666 H 52.91667"
         id="path860" />
      <path
         style="fill:none;stroke:#000000;stroke-width:1.05833;stroke-linecap:butt;stroke-linejoin:miter;stroke-miterlimit:4;stroke-dasharray:none;stroke-opacity:1"
         d="M 0.52916505,53.445833 V 0.52916666"
         id="path862" />
      <path
         style="fill:none;stroke:#000000;stroke-width:1.05833;stroke-linecap:butt;stroke-linejoin:miter;stroke-miterlimit:4;stroke-dasharray:none;stroke-opacity:1"
         d="M 52.91667,52.387498 H 0"
         id="path864" />
      <path
         style="fill:none;stroke:#000000;stroke-width:1.05833;stroke-linecap:butt;stroke-linejoin:miter;stroke-miterlimit:4;stroke-dasharray:none;stroke-opacity:1"
         d="M 52.387498,0.52916666 V 53.445833"
         id="path866" />
      <path
         style="fill:none;stroke:#000000;stroke-width:1.05833;stroke-linecap:butt;stroke-linejoin:miter;stroke-miterlimit:4;stroke-dasharray:none;stroke-opacity:1"
         d="M 15.875,16.404167 H 52.916669"
         id="path868" />
      <path
         style="fill:none;stroke:#000000;stroke-width:1.05833;stroke-linecap:butt;stroke-linejoin:miter;stroke-miterlimit:4;stroke-dasharray:none;stroke-opacity:1"
         d="M 16.404165,52.916666 V 15.875"
         id="path870" />
    </g>
  </g>
</svg>
