<?xml version="1.0" encoding="UTF-8" standalone="no"?>
<!-- Created with Inkscape (http://www.inkscape.org/) -->

<svg
   width="294.15643"
   height="294.15643"
   viewBox="0 0 77.828891 77.828891"
   version="1.1"
   id="svg5"
   inkscape:version="1.1 (c68e22c387, 2021-05-23)"
   sodipodi:docname="logo.svg"
   xmlns:inkscape="http://www.inkscape.org/namespaces/inkscape"
   xmlns:sodipodi="http://sodipodi.sourceforge.net/DTD/sodipodi-0.dtd"
   xmlns="http://www.w3.org/2000/svg"
   xmlns:svg="http://www.w3.org/2000/svg">
  <sodipodi:namedview
     id="namedview7"
     pagecolor="#ffffff"
     bordercolor="#666666"
     borderopacity="1.0"
     inkscape:pageshadow="2"
     inkscape:pageopacity="0.0"
     inkscape:pagecheckerboard="0"
     inkscape:document-units="mm"
     showgrid="true"
     units="px"
     inkscape:zoom="1.387949"
     inkscape:cx="84.657289"
     inkscape:cy="136.53239"
     inkscape:window-width="1920"
     inkscape:window-height="1009"
     inkscape:window-x="-8"
     inkscape:window-y="104"
     inkscape:window-maximized="1"
     inkscape:current-layer="layer1"
     fit-margin-top="0"
     fit-margin-left="0"
     fit-margin-right="0"
     fit-margin-bottom="0">
    <inkscape:grid
       type="xygrid"
       id="grid824"
       originx="12.456113"
       originy="12.456113"
       spacingx="5.2916667"
       spacingy="5.2916667" />
  </sodipodi:namedview>
  <defs
     id="defs2" />
  <g
     inkscape:label="Layer 1"
     inkscape:groupmode="layer"
     id="layer1"
     transform="translate(11.397779,11.397779)">
    <rect
       style="fill:#497462;fill-opacity:1;stroke:#000000;stroke-width:2.11667;stroke-linecap:square;stroke-miterlimit:4;stroke-dasharray:none;paint-order:stroke markers fill"
       id="rect1164"
       width="52.916668"
       height="52.916668"
       x="-26.458334"
       y="12.45611"
       transform="rotate(-45)" />
    <rect
       style="fill:#d8d7c4;fill-opacity:1;stroke:#000000;stroke-width:0;stroke-linecap:square;stroke-miterlimit:4;stroke-dasharray:none;paint-order:stroke markers fill"
       id="rect1884"
       width="37.041672"
       height="37.041664"
       x="-10.583333"
       y="28.331112"
       transform="rotate(-45)" />
    <path
       style="fill:#f5f5f5;fill-opacity:1;stroke:#444444;stroke-width:0.264583;stroke-linecap:butt;stroke-linejoin:miter;stroke-miterlimit:4;stroke-dasharray:none;stroke-opacity:1"
       d="M -6.159294,23.774894 31.258439,61.192627"
       id="path1435" />
    <path
       style="fill:#f5f5f5;fill-opacity:1;stroke:#444444;stroke-width:0.264583;stroke-linecap:butt;stroke-linejoin:miter;stroke-miterlimit:4;stroke-dasharray:none;stroke-opacity:1"
       d="M -2.4175203,20.03312 35.000213,57.450853"
       id="path1437" />
    <path
       style="fill:#f5f5f5;fill-opacity:1;stroke:#444444;stroke-width:0.264583;stroke-linecap:butt;stroke-linejoin:miter;stroke-miterlimit:4;stroke-dasharray:none;stroke-opacity:1"
       d="M 1.3242526,16.291347 38.741986,53.70908"
       id="path1439" />
    <path
       style="fill:#f5f5f5;fill-opacity:1;stroke:#444444;stroke-width:0.264583;stroke-linecap:butt;stroke-linejoin:miter;stroke-miterlimit:4;stroke-dasharray:none;stroke-opacity:1"
       d="M 42.483759,49.967307 5.0660262,12.549573"
       id="path1441" />
    <path
       style="fill:#f5f5f5;fill-opacity:1;stroke:#444444;stroke-width:0.264583;stroke-linecap:butt;stroke-linejoin:miter;stroke-miterlimit:4;stroke-dasharray:none;stroke-opacity:1"
       d="M 8.8077991,8.8078005 46.225532,46.225534"
       id="path1443" />
    <path
       style="fill:#f5f5f5;fill-opacity:1;stroke:#444444;stroke-width:0.264583;stroke-linecap:butt;stroke-linejoin:miter;stroke-miterlimit:4;stroke-dasharray:none;stroke-opacity:1"
       d="M 49.967306,42.48376 12.549573,5.0660269"
       id="path1445" />
    <path
       style="fill:#f5f5f5;fill-opacity:1;stroke:#444444;stroke-width:0.264583;stroke-linecap:butt;stroke-linejoin:miter;stroke-miterlimit:4;stroke-dasharray:none;stroke-opacity:1"
       d="M 16.291346,1.3242533 53.70908,38.741986"
       id="path1447" />
    <path
       style="fill:#f5f5f5;fill-opacity:1;stroke:#444444;stroke-width:0.264583;stroke-linecap:butt;stroke-linejoin:miter;stroke-miterlimit:4;stroke-dasharray:none;stroke-opacity:1"
       d="M 57.450852,35.000214 20.033119,-2.4175196"
       id="path1449" />
    <path
       style="fill:#f5f5f5;fill-opacity:1;stroke:#444444;stroke-width:0.264583;stroke-linecap:butt;stroke-linejoin:miter;stroke-miterlimit:4;stroke-dasharray:none;stroke-opacity:1"
       d="M 23.774893,-6.1592932 61.192626,31.25844"
       id="path1451" />
    <path
       style="fill:#f5f5f5;fill-opacity:1;stroke:#444444;stroke-width:0.264583;stroke-linecap:butt;stroke-linejoin:miter;stroke-miterlimit:4;stroke-dasharray:none;stroke-opacity:1"
       d="M 61.192626,23.774894 23.774893,61.192627"
       id="path1453" />
    <path
       style="fill:#f5f5f5;fill-opacity:1;stroke:#444444;stroke-width:0.264583;stroke-linecap:butt;stroke-linejoin:miter;stroke-miterlimit:4;stroke-dasharray:none;stroke-opacity:1"
       d="M 20.033119,57.450854 57.450852,20.03312"
       id="path1455" />
    <path
       style="fill:#f5f5f5;fill-opacity:1;stroke:#444444;stroke-width:0.264583;stroke-linecap:butt;stroke-linejoin:miter;stroke-miterlimit:4;stroke-dasharray:none;stroke-opacity:1"
       d="M 53.70908,16.291348 16.291346,53.709081"
       id="path1457" />
    <path
       style="fill:#f5f5f5;fill-opacity:1;stroke:#444444;stroke-width:0.264583;stroke-linecap:butt;stroke-linejoin:miter;stroke-miterlimit:4;stroke-dasharray:none;stroke-opacity:1"
       d="M 12.549573,49.967307 49.967306,12.549574"
       id="path1459" />
    <path
       style="fill:#f5f5f5;fill-opacity:1;stroke:#444444;stroke-width:0.264583;stroke-linecap:butt;stroke-linejoin:miter;stroke-miterlimit:4;stroke-dasharray:none;stroke-opacity:1"
       d="m 46.225532,8.8078003 c 0.451425,-0.036862 0.451425,-0.036862 0,0"
       id="path1461" />
    <path
       style="fill:#f5f5f5;fill-opacity:1;stroke:#444444;stroke-width:0.264583;stroke-linecap:butt;stroke-linejoin:miter;stroke-miterlimit:4;stroke-dasharray:none;stroke-opacity:1"
       d="M 8.8077991,46.225533 46.225532,8.8078003"
       id="path1463" />
    <path
       style="fill:#f5f5f5;fill-opacity:1;stroke:#444444;stroke-width:0.264583;stroke-linecap:butt;stroke-linejoin:miter;stroke-miterlimit:4;stroke-dasharray:none;stroke-opacity:1"
       d="M 42.483759,5.0660274 5.0660262,42.483761"
       id="path1465" />
    <path
       style="fill:#f5f5f5;fill-opacity:1;stroke:#444444;stroke-width:0.264583;stroke-linecap:butt;stroke-linejoin:miter;stroke-miterlimit:4;stroke-dasharray:none;stroke-opacity:1"
       d="M 1.3242526,38.741987 38.741986,1.3242538"
       id="path1467" />
    <path
       style="fill:#f5f5f5;fill-opacity:1;stroke:#444444;stroke-width:0.264583;stroke-linecap:butt;stroke-linejoin:miter;stroke-miterlimit:4;stroke-dasharray:none;stroke-opacity:1"
       d="M 35.000213,-2.4175191 -2.4175203,35.000214"
       id="path1469" />
    <path
       style="fill:#f5f5f5;fill-opacity:1;stroke:#444444;stroke-width:0.264583;stroke-linecap:butt;stroke-linejoin:miter;stroke-miterlimit:4;stroke-dasharray:none;stroke-opacity:1"
       d="m -6.159294,31.25844 c -0.155027,-0.495862 -0.155027,-0.495862 0,0"
       id="path1471" />
    <path
       style="fill:#f5f5f5;fill-opacity:1;stroke:#444444;stroke-width:0.264583;stroke-linecap:butt;stroke-linejoin:miter;stroke-miterlimit:4;stroke-dasharray:none;stroke-opacity:1"
       d="M 31.258439,-6.1592928 -6.159294,31.25844"
       id="path1473" />
    <g
       aria-label="Q"
       id="text2452"
       style="font-weight:300;font-size:35.2778px;line-height:1.25;font-family:Calibri;-inkscape-font-specification:'Calibri, Light';stroke:#000000;stroke-width:0">
      <path
         d="m 25.704665,27.092295 q 0,-3.875735 1.980932,-7.40696 1.980931,-3.531225 5.253774,-5.667186 3.272843,-2.135961 6.838519,-2.135961 4.203019,0 6.993549,2.945559 2.790529,2.945559 2.790529,7.648117 0,4.409725 -2.583824,8.337137 -2.566597,3.927411 -6.769617,5.736088 0.430637,1.94648 1.050755,2.66995 0.637343,0.740696 1.739774,0.740696 1.309138,0 2.359892,-0.844048 1.050755,-0.844049 1.37804,-2.049834 0.172254,-0.706245 0.447862,-0.706245 0.396187,0 0.396187,0.465088 0,0.275608 -0.275608,1.22301 -0.258383,0.964628 -0.809598,2.273765 -0.53399,1.309137 -1.670873,2.29099 -1.119656,0.981853 -2.566598,0.981853 -1.94648,0 -2.618274,-1.360814 -0.671794,-1.343588 -0.671794,-3.600127 v -1.636422 q -1.653647,0.533991 -3.462323,0.533991 -4.237471,0 -7.028,-2.945559 -2.773304,-2.945559 -2.773304,-7.493088 z m 3.427873,1.085206 q 0,3.238392 1.171333,5.236549 1.188559,1.998156 3.135039,2.807754 -0.275608,-0.396186 -0.292833,-1.25746 0,-1.41249 0.999078,-2.411569 1.016304,-1.016304 2.325441,-1.016304 1.446941,0 2.239314,0.947402 0.792372,0.947402 1.205784,2.790529 1.877578,-1.240235 3.203941,-3.152264 1.326363,-1.929255 1.912029,-4.030764 0.602892,-2.10151 0.844049,-3.720706 0.258382,-1.619196 0.258382,-3.031686 0,-4.375274 -1.980931,-6.476784 -1.963706,-2.10151 -4.513078,-2.10151 -2.187637,0 -4.203019,1.360814 -1.998157,1.360814 -3.341745,3.410647 -1.205784,1.791451 -1.912029,4.151343 -0.706245,2.342666 -0.8785,3.806833 -0.172255,1.446941 -0.172255,2.687176 z m 4.788686,6.786843 q 0,1.688098 1.739774,1.688098 1.584745,0 3.272843,-0.809598 -0.103353,-1.688098 -0.602892,-2.601049 -0.482314,-0.930177 -1.825902,-0.930177 -1.050755,0 -1.825902,0.809598 -0.757921,0.792373 -0.757921,1.843128 z"
         style="font-weight:normal;font-family:'CMU Serif Extra';-inkscape-font-specification:'CMU Serif Extra'"
         id="path875" />
    </g>
  </g>
</svg>
